<svg id="Layer_1" data-name="Layer 1" xmlns="http://www.w3.org/2000/svg" viewBox="0 0 200.11 117.61"><defs><style>.cls-1{fill:#117143;}.cls-2,.cls-4{fill:#fff;}.cls-3{fill:#789b0b;stroke:#789b0b;stroke-miterlimit:10;stroke-width:0.22px;}.cls-4,.cls-5,.cls-6{fill-rule:evenodd;}.cls-5{fill:#efb300;}.cls-6{fill:#82ba4a;}</style></defs><rect class="cls-1" width="200.11" height="117.61"/><path class="cls-2" d="M92.33,61.08l7.83,2.37A14.53,14.53,0,0,1,97.67,69a10.77,10.77,0,0,1-4.21,3.33,15.67,15.67,0,0,1-6.39,1.12A18.47,18.47,0,0,1,79.37,72a12.2,12.2,0,0,1-5.16-4.81,16.38,16.38,0,0,1-2.16-8.83q0-7.17,3.81-11t10.79-3.85q5.46,0,8.59,2.21a13,13,0,0,1,4.64,6.78L92,54.26a6.7,6.7,0,0,0-.86-1.93,5.16,5.16,0,0,0-1.84-1.58,5.35,5.35,0,0,0-2.42-.55,5.26,5.26,0,0,0-4.65,2.44C81.4,53.85,81,55.75,81,58.33c0,3.21.48,5.4,1.45,6.59a5.77,5.77,0,0,0,8,.34A8.89,8.89,0,0,0,92.33,61.08Z"/><path class="cls-2" d="M122.26,68.14H112.12l-1.41,4.77h-9.12L112.46,44h9.74l10.85,28.9H123.7Zm-1.85-6.25L117.22,51.5l-3.16,10.39Z"/><path class="cls-2" d="M135.93,44H158v6.21H144.9v5.05h11.2V61.1H144.9V72.91h-9Z"/><path class="cls-2" d="M162.78,44h14.84c3.23,0,5.66.77,7.27,2.31a8.69,8.69,0,0,1,2.41,6.56,8.92,8.92,0,0,1-2.63,6.84c-1.76,1.65-4.43,2.47-8,2.47h-4.89V72.91h-9Zm9,12.32h2.19a5.65,5.65,0,0,0,3.62-.89,2.9,2.9,0,0,0,1.05-2.3,3.23,3.23,0,0,0-.91-2.31c-.6-.63-1.74-.94-3.41-.94h-2.54Z"/><g id="_1697740290448" data-name=" 1697740290448"><rect class="cls-3" x="64.1" y="39.61" width="1.34" height="34.43"/><path class="cls-4" d="M32.59,38.21c3.82-2.62,4.22-6.13,9.87-8.48C47.69,32.58,53.23,45.33,53.72,54c.86,15-3,19-6.54,28.8,6.69-6.15,10.1-21.2,10.1-31.41,0-9.21-2.06-18.8-7.08-26a40.52,40.52,0,0,0-2.49-3.27l-3.15-2.69c-5.71,2.47-9.16,11.59-12,18.82Z"/><path class="cls-5" d="M8.9,83.89c7.74,6.52,17.69,8.43,27.84,4.64l3.76-2.22c-5.11,1.45-8.65,3-14.76,2.06-4.69-.75-9.22-3.2-11.33-5.76,1.45-3.69,3.1-3.12,3.74-4.9C14.22,78.77,10.21,80.82,8.9,83.89Z"/><path class="cls-4" d="M23.84,95l.41-4-2.17,2.69A10.7,10.7,0,0,0,20.86,98c8,1.12,16.6-2.78,19.25-8.62C37.69,90.73,31.64,98,23.84,95Z"/><path class="cls-4" d="M27.35,58.06a3.48,3.48,0,0,0-1.89-1.64c1.4,3.28.76,3.07,1.17,5.62a11.82,11.82,0,0,0,2.07,5c-4.93-1.28-10.17-2.26-15.34-.57l.55,2c5.25-1,8.73-1.08,13.8.47a29.56,29.56,0,0,1,3.71,1.48,27.52,27.52,0,0,0-2.63,5.18,22.19,22.19,0,0,0-1.45,6.18,10.17,10.17,0,0,0,2.06.5c0-2.56,1.51-6.65,2.49-8.5A23.44,23.44,0,0,1,37,67.09a23.87,23.87,0,0,1,13.23-6,50,50,0,0,1,5.19,0,8.28,8.28,0,0,0-.18-2c-1.83-.62-7.3.22-9.41.8a24.84,24.84,0,0,0-4.1,1.53c-1.31.61-2.32,1.31-3.46,2a17.26,17.26,0,0,0,.55-4.51,8.15,8.15,0,0,0-.4.92,19.78,19.78,0,0,1-4.15,5.51A30.37,30.37,0,0,0,37,61.37,16.59,16.59,0,0,0,39,56.78c.39-2.18-1.67-5.25,1-9.69a7.63,7.63,0,0,0,.68-1.16A5.23,5.23,0,0,0,36.9,50c-.37,1.94-.79,3.8-1.33,5.69-.26.92-.54,1.78-.85,2.68l-2.22,5a9.13,9.13,0,0,1-1.58,2.23c-1.53-1.2-1.58-2.93-2.34-5.11-.48-1.37-.72-1.27-.64-2.86a26.12,26.12,0,0,1,2-7.65c.41-1,.62-1.54-.35-2.46a3.11,3.11,0,0,0-2.73-.43c.53,1.13,1.94.61.57,5.06-.72,2.33-.52,3.26-.07,5.84Z"/><path class="cls-4" d="M31.85,82.66l2.08.16c.56-8.57,7.82-16.13,16.77-17.08,2.08-.23,3.55,0,4.33,0a9.85,9.85,0,0,0,.26-2,21.61,21.61,0,0,0-9.54,1A21.08,21.08,0,0,0,34.07,75C33.17,76.82,31.83,80.22,31.85,82.66Z"/><path class="cls-4" d="M36.22,83.89l2.06-.3c.48-.84.61-5.92,4.74-9.73a14.7,14.7,0,0,1,4.42-2.76c2.38-1,3.76-.86,6.15-1a7.39,7.39,0,0,0,.79-2,16.89,16.89,0,0,0-12.72,4.2,16.42,16.42,0,0,0-3.53,4.55,22.21,22.21,0,0,0-1.91,7.09Z"/><path class="cls-4" d="M14.93,70.79a8.29,8.29,0,0,0,1,1.85c2.67-.11,2.94-.8,6.88-.28a34.16,34.16,0,0,1,5.54,1.56l.86-1.73c-.91-.83-4.71-1.71-6.27-1.92A20.72,20.72,0,0,0,14.93,70.79Z"/><path class="cls-4" d="M39.89,84.1a12.19,12.19,0,0,0,2-.75c.48-.21.44-.12.65-.57.14-.29,1.32-3,1.5-3.28a10.16,10.16,0,0,1,5.77-4.63c1.16-.37,1.06-.07,1.67-1,.19-.27.91-1.16.91-1.58a12.36,12.36,0,0,0-7.73,3.12C43.13,76.78,39.9,82.34,39.89,84.1Z"/><path class="cls-4" d="M26.9,78.24l.56-2c-.54-.52-3.32-1.28-4.37-1.48a16.88,16.88,0,0,0-5.63,0,6.75,6.75,0,0,0,1.69,1.87c.84.23,2.89-.42,6.57,1.09C26.11,77.9,26.55,78.14,26.9,78.24Z"/><path class="cls-5" d="M34.09,59.22A10.94,10.94,0,0,0,35,56.15a4.07,4.07,0,0,0-1.88.28c-.39.21-.43.91-.54,1.34s-.47,1.14-.13,1.4A3.4,3.4,0,0,0,34.09,59.22Z"/><path class="cls-5" d="M30.64,64.52a9.32,9.32,0,0,0,.45-2.19,6.43,6.43,0,0,0,.21-2.44,2,2,0,0,0-1.15-.31,16.7,16.7,0,0,0-.48,2.5,2.81,2.81,0,0,0,.68,2.23c.28.34,0,.13.29.21Z"/><path class="cls-5" d="M31,65c.41-.2.41-.47.8-1.2l1.4-2.62a2.9,2.9,0,0,0,.57-1.37,3,3,0,0,0-1.67,0A48.71,48.71,0,0,0,31,65Z"/><path class="cls-5" d="M31.8,59a7.55,7.55,0,0,0,.5-2.78,3.45,3.45,0,0,0-1.58-.07,10.23,10.23,0,0,0-.51,2c-.08.55,0,.62.44.74A2.33,2.33,0,0,0,31.8,59Z"/><path class="cls-5" d="M35.72,53.19a3.71,3.71,0,0,0-2.08.68c-.17.21-.66,1.67-.38,1.87.12.08,1.81.11,2.11-.52A5.08,5.08,0,0,0,35.72,53.19Z"/><path class="cls-5" d="M31.05,53a7.74,7.74,0,0,0,.65-2.23,2.14,2.14,0,0,0-1.36-.8,11.29,11.29,0,0,0-.77,1.89c-.17.54-.18.72.29.93A1.89,1.89,0,0,0,31.05,53Z"/><path class="cls-5" d="M29.77,58.44a6.05,6.05,0,0,0,.49-2.38,2.71,2.71,0,0,0-1.7-.58c0,.36-.29,1.68-.26,2,.07.6,1,1.05,1.47,1Z"/><path class="cls-5" d="M28.74,55a2.36,2.36,0,0,0,1.62.5,3.63,3.63,0,0,0,.48-1.83c0-.06-1.22-1-1.61-.55A5.47,5.47,0,0,0,28.74,55Z"/><path class="cls-5" d="M33,53.54a3.39,3.39,0,0,0-1.63.13c-.89,2.34-.39,2.08.52,2.14.71,0,.76-.25.9-.85A3.32,3.32,0,0,0,33,53.54Z"/><path class="cls-5" d="M31.67,53.19c.52.12,1.45.07,1.67-.31a4.39,4.39,0,0,0,.36-1.68c-.44-.21-1.39-.56-1.63,0A4.62,4.62,0,0,0,31.67,53.19Z"/><path class="cls-5" d="M34.06,45.72a1.77,1.77,0,0,0-1.74.79c-.76.85-1.18,1.21-.55,1.52.9.45,1.13.11,1.51-.56C33.5,47.09,34.16,46.15,34.06,45.72Z"/><path class="cls-5" d="M32.65,50.53a2.18,2.18,0,0,0,1.41.19A3.34,3.34,0,0,0,34.58,49c-.39-.09-1.24-.27-1.54.07A2.38,2.38,0,0,0,32.65,50.53Z"/><path class="cls-5" d="M33.87,53c.25,0,2.64-.06,2.15-1.65-.41-.19-1.38-.27-1.73.12A3.29,3.29,0,0,0,33.87,53Z"/><path class="cls-5" d="M33.27,48.36c.46.12,1.26.22,1.54-.22a2.38,2.38,0,0,0,.29-1.71c-.94-.23-.75-.17-1.18.55C33.66,47.41,33.24,47.8,33.27,48.36Z"/><path class="cls-5" d="M31.87,50.19a2.37,2.37,0,0,0,.62-1.43,1.77,1.77,0,0,0-1.33-.57c-.2.23-.64,1-.57,1.26S31.52,50.19,31.87,50.19Z"/><path class="cls-5" d="M36,50.86a3.78,3.78,0,0,0,.05-1.61c-.08-.73-.65-.63-.94,0a9.43,9.43,0,0,0-.47,1.31C34.68,51.07,35.58,51.07,36,50.86Z"/><path class="cls-6" d="M41.56,84.34,36,82.9c-11.52-3-24.64-13.75-24.84-25.3,3.64-1.67,4.87-1.79,9.47-2a8.85,8.85,0,0,0-4-1.43,34.63,34.63,0,0,0-4.5-.76,25.28,25.28,0,0,0-5.29,0c-2.34.27-3.18.19-3,2.42.82,10,11.12,19.63,19.91,24.2a38,38,0,0,0,17.85,4.34Z"/><path class="cls-2" d="M65.2,87.1a1.72,1.72,0,0,1-.9-.22,1.4,1.4,0,0,1-.57-.61,2.24,2.24,0,0,1-.2-1V81.69a2.24,2.24,0,0,1,.2-1,1.37,1.37,0,0,1,.57-.62,2,2,0,0,1,1.8,0,1.37,1.37,0,0,1,.57.62,2.24,2.24,0,0,1,.2,1v.44H65.79v-.44a1,1,0,0,0-.07-.4.5.5,0,0,0-.2-.25A.55.55,0,0,0,65.2,81a.57.57,0,0,0-.32.09.63.63,0,0,0-.2.25,1.19,1.19,0,0,0-.07.4V85.3a1.13,1.13,0,0,0,.07.39.67.67,0,0,0,.2.26.66.66,0,0,0,.32.08.63.63,0,0,0,.32-.08.52.52,0,0,0,.2-.26,1,1,0,0,0,.07-.4v-.43h1.08v.43a2.21,2.21,0,0,1-.2,1,1.37,1.37,0,0,1-.57.62A1.72,1.72,0,0,1,65.2,87.1Z"/><path id="_1" data-name="1" class="cls-2" d="M69.52,87.1a1.8,1.8,0,0,1-.84-.19,1.3,1.3,0,0,1-.54-.55,2,2,0,0,1-.18-.88V83.6a2.13,2.13,0,0,1,.18-.92,1.23,1.23,0,0,1,.52-.58,1.54,1.54,0,0,1,.82-.2,1.67,1.67,0,0,1,.83.19,1.18,1.18,0,0,1,.53.55,1.93,1.93,0,0,1,.19.87v1.38H68.76v-.82H70V83.5a.69.69,0,0,0-.14-.48.46.46,0,0,0-.38-.17.43.43,0,0,0-.37.18.91.91,0,0,0-.13.51v2a.64.64,0,0,0,.14.44.51.51,0,0,0,.4.17.54.54,0,0,0,.37-.13.48.48,0,0,0,.13-.35v-.1h1v.09a1.43,1.43,0,0,1-.4,1.08,1.57,1.57,0,0,1-1.12.38Z"/><path id="_2" data-name="2" class="cls-2" d="M72.27,82h1.07v5H72.27Zm2.07,1.51a.68.68,0,0,0-.13-.46.51.51,0,0,0-.74,0,.72.72,0,0,0-.13.48l-.1-.66a1.56,1.56,0,0,1,.45-.71,1,1,0,0,1,.67-.24.92.92,0,0,1,.77.34,1.53,1.53,0,0,1,.27,1V87H74.34Z"/><path id="_3" data-name="3" class="cls-2" d="M78.07,87.05a1.18,1.18,0,0,1-.94-.34,1.46,1.46,0,0,1-.3-1V80.52h1v5.1a.44.44,0,0,0,.09.29.31.31,0,0,0,.25.11h.36v1ZM76.35,82h2.23v1H76.35Z"/><path id="_4" data-name="4" class="cls-2" d="M102.15,80H103L104.65,87h-1.09l-1-5.12-1,5.12h-1.09Zm-.57,4.75h2v1h-2Z"/><path id="_5" data-name="5" class="cls-2" d="M107,89.07a1.5,1.5,0,0,1-1.11-.38,1.4,1.4,0,0,1-.39-1.06v-.18h1.06v.18a.48.48,0,0,0,.12.35.5.5,0,0,0,.35.13.48.48,0,0,0,.35-.13.47.47,0,0,0,.12-.34V82h1.06v5.66a1.54,1.54,0,0,1-.18.77,1.12,1.12,0,0,1-.54.49,1.8,1.8,0,0,1-.84.17Zm-.47-2a.94.94,0,0,1-.57-.17,1,1,0,0,1-.36-.49,2.27,2.27,0,0,1-.13-.78V83.36a2.29,2.29,0,0,1,.13-.79,1,1,0,0,1,.36-.5.88.88,0,0,1,.57-.17,1,1,0,0,1,.62.24,1.75,1.75,0,0,1,.45.66l-.1.66a.84.84,0,0,0-.06-.33.45.45,0,0,0-.16-.2.45.45,0,0,0-.27-.07.44.44,0,0,0-.36.16.65.65,0,0,0-.13.45v2.11a.6.6,0,0,0,.13.42.46.46,0,0,0,.36.15.54.54,0,0,0,.27-.07.45.45,0,0,0,.16-.2.79.79,0,0,0,.06-.32l.07.67a1.35,1.35,0,0,1-.41.65,1,1,0,0,1-.63.23Z"/><path id="_6" data-name="6" class="cls-2" d="M109.92,82H111v5h-1.06Zm2.36,1H112a1.06,1.06,0,0,0-.77.27A1,1,0,0,0,111,84l-.1-1.12a1.83,1.83,0,0,1,.6-.71,1.35,1.35,0,0,1,.8-.25h0V83Z"/><path id="_7" data-name="7" class="cls-2" d="M113.29,80h1.06v1.06h-1.06Zm0,2h1.06v5h-1.06Z"/><path id="_8" data-name="8" class="cls-2" d="M117.09,87.1a2,2,0,0,1-.85-.17,1.28,1.28,0,0,1-.53-.5,1.58,1.58,0,0,1-.18-.78V83.41a1.74,1.74,0,0,1,.18-.82,1.23,1.23,0,0,1,.54-.52,1.93,1.93,0,0,1,.84-.17,2,2,0,0,1,.84.17,1.23,1.23,0,0,1,.53.53,1.63,1.63,0,0,1,.19.82v.3H117.6v-.25a.69.69,0,0,0-.13-.45.51.51,0,0,0-.74,0,.66.66,0,0,0-.13.44V85.6a.53.53,0,0,0,.13.39.5.5,0,0,0,.37.14.47.47,0,0,0,.37-.15.55.55,0,0,0,.13-.4v-.24h1.06v.28a1.52,1.52,0,0,1-.19.79,1.19,1.19,0,0,1-.54.5,1.8,1.8,0,0,1-.84.18Z"/><path id="_9" data-name="9" class="cls-2" d="M121.56,82h1v5h-1Zm-.93,3.71a.48.48,0,0,0,.12.35.46.46,0,0,0,.35.12.46.46,0,0,0,.34-.13.49.49,0,0,0,.12-.36l.06.56a1.31,1.31,0,0,1-.36.65.85.85,0,0,1-.58.22,1,1,0,0,1-.83-.35,1.7,1.7,0,0,1-.27-1V82h1v3.71Z"/><path id="_10" data-name="10" class="cls-2" d="M125,85.59a.45.45,0,0,0,.09.3.33.33,0,0,0,.26.1h.21v1h-.42a1.12,1.12,0,0,1-.89-.35,1.41,1.41,0,0,1-.31-1V80H125v5.63Z"/><path id="_11" data-name="11" class="cls-2" d="M127.9,87.05a1.2,1.2,0,0,1-1-.34,1.46,1.46,0,0,1-.3-1V80.52h1.06v5.1a.44.44,0,0,0,.09.29A.3.3,0,0,0,128,86h.36v1ZM126.18,82h2.22v1h-2.22Z"/><path id="_12" data-name="12" class="cls-2" d="M131.47,82h1.06v5h-1.06Zm-.92,3.71a.48.48,0,0,0,.12.35.45.45,0,0,0,.35.12.46.46,0,0,0,.34-.13.53.53,0,0,0,.11-.36l.07.56a1.39,1.39,0,0,1-.36.65.86.86,0,0,1-.59.22,1,1,0,0,1-.82-.35,1.7,1.7,0,0,1-.27-1V82h1.05v3.71Z"/><path id="_13" data-name="13" class="cls-2" d="M133.86,82h1.07v5h-1.07Zm2.36,1H136a1,1,0,0,0-.77.27.93.93,0,0,0-.28.72l-.1-1.12a1.89,1.89,0,0,1,.59-.71,1.38,1.38,0,0,1,.8-.25h0V83Z"/><path id="_14" data-name="14" class="cls-2" d="M138.65,87.1a1.8,1.8,0,0,1-.84-.19,1.28,1.28,0,0,1-.53-.55,1.84,1.84,0,0,1-.19-.88V83.6a2.13,2.13,0,0,1,.18-.92,1.28,1.28,0,0,1,.52-.58,1.57,1.57,0,0,1,.83-.2,1.67,1.67,0,0,1,.83.19,1.23,1.23,0,0,1,.53.55,1.93,1.93,0,0,1,.18.87v1.38H137.9v-.82h1.23V83.5A.74.74,0,0,0,139,83a.47.47,0,0,0-.38-.17.42.42,0,0,0-.37.18.84.84,0,0,0-.13.51v2a.6.6,0,0,0,.14.44.48.48,0,0,0,.39.17A.52.52,0,0,0,139,86a.45.45,0,0,0,.13-.35v-.1h1v.09a1.46,1.46,0,0,1-.39,1.08,1.59,1.59,0,0,1-1.13.38Z"/><path id="_15" data-name="15" class="cls-2" d="M81.13,87.1a1.8,1.8,0,0,1-.84-.19,1.3,1.3,0,0,1-.54-.55,2,2,0,0,1-.18-.88V83.6a2.13,2.13,0,0,1,.18-.92,1.23,1.23,0,0,1,.52-.58,1.54,1.54,0,0,1,.82-.2,1.64,1.64,0,0,1,.83.19,1.18,1.18,0,0,1,.53.55,1.8,1.8,0,0,1,.19.87v1.38H80.37v-.82h1.24V83.5a.74.74,0,0,0-.13-.48.48.48,0,0,0-.39-.17.43.43,0,0,0-.37.18.91.91,0,0,0-.13.51v2a.64.64,0,0,0,.14.44.51.51,0,0,0,.4.17A.54.54,0,0,0,81.5,86a.48.48,0,0,0,.13-.35v-.1h1v.09a1.43,1.43,0,0,1-.4,1.08,1.57,1.57,0,0,1-1.12.38Z"/><path id="_16" data-name="16" class="cls-2" d="M83.89,82H85v5H83.89Zm2.35,1H86a1,1,0,0,0-.77.27A1,1,0,0,0,85,84l-.1-1.12a1.89,1.89,0,0,1,.59-.71,1.38,1.38,0,0,1,.8-.25h0V83Z"/><path id="_17" data-name="17" class="cls-2" d="M89.08,81.3a1.39,1.39,0,0,1,.31-1,1.31,1.31,0,0,1,1-.34H91v1h-.51a.28.28,0,0,0-.25.11.5.5,0,0,0-.08.29V87H89.08V81.3ZM88.6,82H91v1H88.6Z"/><path id="_18" data-name="18" class="cls-2" d="M93.07,87.1a1.75,1.75,0,0,1-.8-.17,1.1,1.1,0,0,1-.51-.49,1.5,1.5,0,0,1-.18-.76V83.29a1.46,1.46,0,0,1,.18-.75,1.13,1.13,0,0,1,.51-.48,2.06,2.06,0,0,1,1.59,0,1.18,1.18,0,0,1,.51.48,1.57,1.57,0,0,1,.17.75v2.4a1.61,1.61,0,0,1-.17.76,1.18,1.18,0,0,1-.51.48,1.74,1.74,0,0,1-.79.17Zm0-1a.39.39,0,0,0,.31-.13.49.49,0,0,0,.11-.36V83.35a.45.45,0,0,0-.11-.34.36.36,0,0,0-.31-.13.39.39,0,0,0-.31.13.51.51,0,0,0-.11.34v2.27a.49.49,0,0,0,.11.36.41.41,0,0,0,.31.13Z"/><path id="_19" data-name="19" class="cls-2" d="M95.77,82h1.07v5H95.77Zm2.36,1h-.24a1,1,0,0,0-.77.27.93.93,0,0,0-.28.72l-.11-1.12a2,2,0,0,1,.6-.71,1.35,1.35,0,0,1,.8-.25h0V83Z"/><path id="_20" data-name="20" class="cls-2" d="M145.11,83.37A.55.55,0,0,0,145,83a.52.52,0,0,0-.38-.14.42.42,0,0,0-.33.14.59.59,0,0,0-.12.39h-1a1.47,1.47,0,0,1,.39-1.09,1.51,1.51,0,0,1,1.1-.38,1.74,1.74,0,0,1,.82.17,1.25,1.25,0,0,1,.52.5,1.69,1.69,0,0,1,.18.8V87h-1Zm-.9,3.73a1.1,1.1,0,0,1-.89-.36,1.66,1.66,0,0,1-.31-1.07,1.74,1.74,0,0,1,.41-1.25,1.62,1.62,0,0,1,1.21-.43h.51l.06.89h-.54a.6.6,0,0,0-.48.2,1,1,0,0,0-.16.59.57.57,0,0,0,.12.39.49.49,0,0,0,.36.12A.58.58,0,0,0,145,86a.7.7,0,0,0,.16-.49l.09.44a1.43,1.43,0,0,1-.12.62.83.83,0,0,1-.33.38,1,1,0,0,1-.54.13Z"/><path id="_21" data-name="21" class="cls-2" d="M147.46,82h1.07v5h-1.07Zm2.07,1.51a.68.68,0,0,0-.13-.46.44.44,0,0,0-.38-.16.43.43,0,0,0-.37.16.79.79,0,0,0-.12.48l-.1-.66a1.41,1.41,0,0,1,.45-.71,1,1,0,0,1,.67-.24.92.92,0,0,1,.77.34,1.53,1.53,0,0,1,.27,1V87h-1.06Z"/><path id="_22" data-name="22" class="cls-2" d="M153.85,80h1.06V87h-1.06Zm-1,7.15a.93.93,0,0,1-.56-.17,1,1,0,0,1-.36-.49,2.27,2.27,0,0,1-.13-.78V83.36a2.29,2.29,0,0,1,.13-.79,1,1,0,0,1,.36-.5.87.87,0,0,1,.56-.17.91.91,0,0,1,.62.24,1.66,1.66,0,0,1,.46.66l-.1.67a.79.79,0,0,0-.06-.32.44.44,0,0,0-.17-.21.5.5,0,0,0-.26-.07A.47.47,0,0,0,153,83a.75.75,0,0,0-.13.45v2.08A.66.66,0,0,0,153,86a.46.46,0,0,0,.36.15.42.42,0,0,0,.26-.07.38.38,0,0,0,.17-.2.76.76,0,0,0,.06-.32l.07.69a1.43,1.43,0,0,1-.41.65,1,1,0,0,1-.64.23Z"/><path id="_23" data-name="23" class="cls-2" d="M157.88,80h1.06V87h-1.06Zm.51,3.11h2.33v1h-2.33Zm0-3.11H161v1h-2.58Z"/><path id="_24" data-name="24" class="cls-2" d="M163.29,87.1a1.78,1.78,0,0,1-.8-.17,1.15,1.15,0,0,1-.51-.49,1.61,1.61,0,0,1-.17-.76V83.29a1.57,1.57,0,0,1,.17-.75,1.18,1.18,0,0,1,.51-.48,2.08,2.08,0,0,1,1.6,0,1.11,1.11,0,0,1,.5.48,1.46,1.46,0,0,1,.18.75v2.4a1.5,1.5,0,0,1-.18.76,1.11,1.11,0,0,1-.5.48,1.78,1.78,0,0,1-.8.17Zm0-1a.41.41,0,0,0,.31-.13.53.53,0,0,0,.11-.36V83.35a.5.5,0,0,0-.11-.34.43.43,0,0,0-.62,0,.47.47,0,0,0-.12.34v2.27A.53.53,0,0,0,163,86a.43.43,0,0,0,.32.13Z"/><path id="_25" data-name="25" class="cls-2" d="M167.38,87.1a1.78,1.78,0,0,1-.8-.17,1.15,1.15,0,0,1-.51-.49,1.5,1.5,0,0,1-.17-.76V83.29a1.46,1.46,0,0,1,.17-.75,1.18,1.18,0,0,1,.51-.48,1.78,1.78,0,0,1,.8-.16,1.81,1.81,0,0,1,.8.16,1.16,1.16,0,0,1,.5.48,1.57,1.57,0,0,1,.17.75v2.4a1.61,1.61,0,0,1-.17.76,1.16,1.16,0,0,1-.5.48,1.81,1.81,0,0,1-.8.17Zm0-1a.39.39,0,0,0,.31-.13.49.49,0,0,0,.11-.36V83.35a.45.45,0,0,0-.11-.34.36.36,0,0,0-.31-.13.39.39,0,0,0-.31.13.51.51,0,0,0-.11.34v2.27a.53.53,0,0,0,.11.36.41.41,0,0,0,.31.13Z"/><path id="_26" data-name="26" class="cls-2" d="M172,80h1.06V87H172Zm-1,7.15a.93.93,0,0,1-.56-.17,1,1,0,0,1-.36-.49,2.06,2.06,0,0,1-.13-.78V83.36a2.08,2.08,0,0,1,.13-.79,1,1,0,0,1,.36-.5.87.87,0,0,1,.56-.17.93.93,0,0,1,.62.24,1.66,1.66,0,0,1,.46.66l-.1.67a.79.79,0,0,0-.06-.32.51.51,0,0,0-.17-.21.53.53,0,0,0-.26-.07.45.45,0,0,0-.36.16.69.69,0,0,0-.13.45v2.08a.6.6,0,0,0,.13.42.45.45,0,0,0,.36.15.44.44,0,0,0,.26-.07.42.42,0,0,0,.17-.2.76.76,0,0,0,.06-.32l.06.69a1.34,1.34,0,0,1-.4.65,1,1,0,0,1-.64.23Z"/><path id="_27" data-name="27" class="cls-2" d="M176.57,83.27h1.29a.47.47,0,0,0,.29-.08.52.52,0,0,0,.19-.22,1,1,0,0,0,.06-.35v-1a1,1,0,0,0-.06-.37.43.43,0,0,0-.19-.23.55.55,0,0,0-.29-.08h-1.29V80h1.3a1.93,1.93,0,0,1,.87.19,1.29,1.29,0,0,1,.56.55,1.91,1.91,0,0,1,.19.86v1.16a1.87,1.87,0,0,1-.19.85,1.3,1.3,0,0,1-.56.53,1.93,1.93,0,0,1-.87.19h-1.3v-1ZM176,80h1.07V87H176Z"/><path id="_28" data-name="28" class="cls-2" d="M181.69,87.1a1.78,1.78,0,0,1-.8-.17,1.15,1.15,0,0,1-.51-.49,1.61,1.61,0,0,1-.17-.76V83.29a1.57,1.57,0,0,1,.17-.75,1.18,1.18,0,0,1,.51-.48,2.08,2.08,0,0,1,1.6,0,1.11,1.11,0,0,1,.5.48,1.46,1.46,0,0,1,.17.75v2.4a1.5,1.5,0,0,1-.17.76,1.11,1.11,0,0,1-.5.48,1.78,1.78,0,0,1-.8.17Zm0-1A.41.41,0,0,0,182,86a.53.53,0,0,0,.11-.36V83.35A.5.5,0,0,0,182,83a.43.43,0,0,0-.62,0,.47.47,0,0,0-.12.34v2.27a.53.53,0,0,0,.11.36.43.43,0,0,0,.32.13Z"/><path id="_29" data-name="29" class="cls-2" d="M185.46,85.59a.45.45,0,0,0,.09.3.32.32,0,0,0,.25.1H186v1h-.42a1.12,1.12,0,0,1-.89-.35,1.41,1.41,0,0,1-.31-1V80h1.06v5.63Z"/><path id="_30" data-name="30" class="cls-2" d="M187,80H188v1.06H187Zm0,2H188v5H187Z"/><path id="_31" data-name="31" class="cls-2" d="M190.76,87.1a2,2,0,0,1-.85-.17,1.28,1.28,0,0,1-.53-.5,1.58,1.58,0,0,1-.18-.78V83.41a1.74,1.74,0,0,1,.18-.82,1.23,1.23,0,0,1,.54-.52,1.93,1.93,0,0,1,.84-.17,2,2,0,0,1,.84.17,1.23,1.23,0,0,1,.53.53,1.63,1.63,0,0,1,.19.82v.3h-1v-.25a.69.69,0,0,0-.13-.45.51.51,0,0,0-.74,0,.66.66,0,0,0-.13.44V85.6a.53.53,0,0,0,.13.39.5.5,0,0,0,.37.14.47.47,0,0,0,.37-.15.55.55,0,0,0,.13-.4v-.24h1.06v.28a1.52,1.52,0,0,1-.19.79,1.19,1.19,0,0,1-.54.5,1.8,1.8,0,0,1-.84.18Z"/><path id="_32" data-name="32" class="cls-2" d="M196.33,82,194.9,88.2a1.22,1.22,0,0,1-.26.52,1.09,1.09,0,0,1-.47.3,2.12,2.12,0,0,1-.71.11h-.26v-1h.27a.76.76,0,0,0,.46-.12.66.66,0,0,0,.21-.4L195.3,82Zm-3.49,0h1l1,4.37-.52,1.15Z"/></g></svg>